# xmcd CD database file
# Copyright (C) 1993-1996 Ti Kan
#
# Track frame offsets:
# 150
# 13705
# 27300
# 39647
# 53057
# 67807
# 81840
# 92485
# 104782
# 115380
# 125897
# 137485
# 147712
# 161720
# 175120
# 187297
# 199492
# 209697
# 219702
# 232745
#
# Disc length: 3254 seconds
#
# Revision: 0
# Processed by: cddbd v1.4b41PL1 Copyright (c) Steve Scherf et al.
# Submitted via: inCDius 1.1b5
#
DISCID=360cb414
DTITLE=B. B. King - Heart and Soul
DYEAR=1900
DGENRE=
TTITLE0=Lonely And Blue
TTITLE1=Sneakin'Around (With You)
TTITLE2=You Can't Fool My Heart
TTITLE3=Story From My Heart And Soul
TTITLE4=Don't Get Around Much Anymore
TTITLE5=You Know I Love You
TTITLE6=I'm King
TTITLE7=A Lonely Lover's Plea
TTITLE8=My Heart Belongs To You
TTITLE9=Don't Cry Anymore
TTITLE10=Please Accept My Love
TTITLE11=Peace Of Mind
TTITLE12=I Was Blind
TTITLE13=On My Word Of Honour
TTITLE14=I'll Survive
TTITLE15=If I Lost You
TTITLE16=My Reward
TTITLE17=I Am
TTITLE18=I Love You So
TTITLE19=Key To My Kingdom
EXTD=
EXTT0=
EXTT1=
EXTT2=
EXTT3=
EXTT4=
EXTT5=
EXTT6=
EXTT7=
EXTT8=
EXTT9=
EXTT10=
EXTT11=
EXTT12=
EXTT13=
EXTT14=
EXTT15=
EXTT16=
EXTT17=
EXTT18=
EXTT19=
PLAYORDER=
